<svg aria-hidden="true" style="position: absolute; width: 0; height: 0; overflow: hidden;" version="1.1" xmlns="http://www.w3.org/2000/svg" xmlns:xlink="http://www.w3.org/1999/xlink">
<defs>
<symbol id="close" viewBox="0 0 32 32">
<path d="M23.736 10.304l-1.504-1.504-5.968 5.96-5.96-5.96-1.504 1.504 5.96 5.96-5.96 5.976 1.504 1.504 5.96-5.968 5.968 5.968 1.504-1.504-5.968-5.968 5.968-5.96z"></path>
</symbol>
<symbol id="open" viewBox="0 0 32 32">
<path d="M6.4 11.736v-2.136h19.2v2.136h-19.2zM6.4 17.064h19.2v-2.128h-19.2v2.128zM6.4 22.4h19.2v-2.136h-19.2v2.136z"></path>
</symbol>
<symbol id="call" viewBox="0 0 24 24">
<path d="M20.016 15.375q0.422 0 0.703 0.281t0.281 0.703v3.469q0 1.172-0.984 1.172-6.984 0-12-5.016t-5.016-12q0-0.984 1.172-0.984h3.469q0.422 0 0.703 0.281t0.281 0.703q0 1.828 0.563 3.516 0.188 0.609-0.234 1.031l-1.922 1.688q2.156 4.5 6.891 6.797l1.547-1.969q0.281-0.281 0.703-0.281 0.234 0 0.328 0.047 1.688 0.563 3.516 0.563z"></path>
</symbol>
<symbol id="email" viewBox="0 0 24 24">
<path d="M20.016 8.016v-2.016l-8.016 5.016-8.016-5.016v2.016l8.016 4.969zM20.016 3.984q0.797 0 1.383 0.609t0.586 1.406v12q0 0.797-0.586 1.406t-1.383 0.609h-16.031q-0.797 0-1.383-0.609t-0.586-1.406v-12q0-0.797 0.586-1.406t1.383-0.609h16.031z"></path>
</symbol>
<symbol id="location" viewBox="0 0 24 24">
<path d="M12 11.484q1.031 0 1.758-0.727t0.727-1.758-0.727-1.758-1.758-0.727-1.758 0.727-0.727 1.758 0.727 1.758 1.758 0.727zM12 2.016q2.906 0 4.945 2.039t2.039 4.945q0 1.453-0.727 3.328t-1.758 3.516-2.039 3.070-1.711 2.273l-0.75 0.797q-0.281-0.328-0.75-0.867t-1.688-2.156-2.133-3.141-1.664-3.445-0.75-3.375q0-2.906 2.039-4.945t4.945-2.039z"></path>
</symbol>
<symbol id="telegram" viewBox="0 0 24 24">
<path d="M15.924 17.504l1.969-9.281c0.174-0.817-0.295-1.138-0.83-0.938l-11.571 4.46c-0.79 0.308-0.777 0.75-0.134 0.951l2.96 0.924 6.871-4.326c0.321-0.214 0.616-0.094 0.375 0.121l-5.558 5.022-0.214 3.054c0.308 0 0.442-0.134 0.603-0.295l1.446-1.393 3 2.21c0.549 0.308 0.938 0.147 1.085-0.509zM24 12c0 6.629-5.371 12-12 12s-12-5.371-12-12 5.371-12 12-12 12 5.371 12 12z"></path>
</symbol>
<symbol id="linkedin" viewBox="0 0 21 24">
<path d="M4.674 8.371v13.272h-4.42v-13.272h4.42zM4.955 4.272c0.013 1.272-0.951 2.29-2.491 2.29v0h-0.027c-1.487 0-2.438-1.018-2.438-2.29 0-1.299 0.991-2.29 2.491-2.29 1.513 0 2.451 0.991 2.464 2.29zM20.571 14.036v7.607h-4.406v-7.098c0-1.781-0.643-3-2.237-3-1.219 0-1.942 0.817-2.263 1.607-0.107 0.295-0.147 0.683-0.147 1.085v7.406h-4.406c0.054-12.027 0-13.272 0-13.272h4.406v1.929h-0.027c0.576-0.911 1.621-2.237 4.004-2.237 2.906 0 5.076 1.902 5.076 5.973z"></path>
</symbol>
<symbol id="github" viewBox="0 0 21 24">
<path d="M10.286 1.714c5.679 0 10.286 4.607 10.286 10.286 0 4.54-2.946 8.397-7.031 9.763-0.522 0.094-0.71-0.228-0.71-0.496 0-0.335 0.013-1.446 0.013-2.826 0-0.964-0.321-1.58-0.696-1.902 2.29-0.254 4.701-1.125 4.701-5.076 0-1.125-0.402-2.036-1.058-2.759 0.107-0.268 0.455-1.313-0.107-2.732-0.857-0.268-2.826 1.058-2.826 1.058-0.817-0.228-1.701-0.348-2.571-0.348s-1.754 0.121-2.571 0.348c0 0-1.969-1.326-2.826-1.058-0.563 1.42-0.214 2.464-0.107 2.732-0.656 0.723-1.058 1.634-1.058 2.759 0 3.937 2.397 4.821 4.688 5.076-0.295 0.268-0.562 0.723-0.656 1.379-0.589 0.268-2.089 0.723-2.987-0.857-0.563-0.978-1.58-1.058-1.58-1.058-1.004-0.013-0.067 0.629-0.067 0.629 0.67 0.308 1.138 1.5 1.138 1.5 0.603 1.835 3.469 1.219 3.469 1.219 0 0.857 0.013 1.661 0.013 1.915 0 0.268-0.188 0.589-0.71 0.496-4.085-1.366-7.031-5.223-7.031-9.763 0-5.679 4.607-10.286 10.286-10.286zM3.897 16.487c0.027-0.054-0.013-0.121-0.094-0.161-0.080-0.027-0.147-0.013-0.174 0.027-0.027 0.054 0.013 0.121 0.094 0.161 0.067 0.040 0.147 0.027 0.174-0.027zM4.313 16.942c0.054-0.040 0.040-0.134-0.027-0.214-0.067-0.067-0.161-0.094-0.214-0.040-0.054 0.040-0.040 0.134 0.027 0.214 0.067 0.067 0.161 0.094 0.214 0.040zM4.714 17.545c0.067-0.054 0.067-0.161 0-0.254-0.054-0.094-0.161-0.134-0.228-0.080-0.067 0.040-0.067 0.147 0 0.241s0.174 0.134 0.228 0.094zM5.277 18.107c0.054-0.054 0.027-0.174-0.054-0.254-0.094-0.094-0.214-0.107-0.268-0.040-0.067 0.054-0.040 0.174 0.054 0.254 0.094 0.094 0.214 0.107 0.268 0.040zM6.040 18.442c0.027-0.080-0.054-0.174-0.174-0.214-0.107-0.027-0.228 0.013-0.254 0.094s0.054 0.174 0.174 0.201c0.107 0.040 0.228 0 0.254-0.080zM6.884 18.509c0-0.094-0.107-0.161-0.228-0.147-0.121 0-0.214 0.067-0.214 0.147 0 0.094 0.094 0.161 0.228 0.147 0.121 0 0.214-0.067 0.214-0.147zM7.661 18.375c-0.013-0.080-0.121-0.134-0.241-0.121-0.121 0.027-0.201 0.107-0.188 0.201 0.013 0.080 0.121 0.134 0.241 0.107s0.201-0.107 0.188-0.188z"></path>
</symbol>
</defs>
</svg>
